PathFileType	4	(X/Y/Z)	Apose_0-50.trc
DataRate	CameraRate	NumFrames	NumMarkers	Units	OrigDataRate	OrigDataStartFrame	OrigNumFrames
30	30	8	22	m	30	10	50
Frame#	Time	Hip			RHip			RKnee			RAnkle			RBigToe			RSmallToe			RHeel			LHip			LKnee			LAnkle			LBigToe			LSmallToe			LHeel			Neck			Head			Nose			RShoulder			RElbow			RWrist			LShoulder			LElbow			LWrist		
		X1	Y1	Z1	X2	Y2	Z2	X3	Y3	Z3	X4	Y4	Z4	X5	Y5	Z5	X6	Y6	Z6	X7	Y7	Z7	X8	Y8	Z8	X9	Y9	Z9	X10	Y10	Z10	X11	Y11	Z11	X12	Y12	Z12	X13	Y13	Z13	X14	Y14	Z14	X15	Y15	Z15	X16	Y16	Z16	X17	Y17	Z17	X18	Y18	Z18	X19	Y19	Z19	X20	Y20	Z20	X21	Y21	Z21	X22	Y22	Z22
11	0.36666666666666664	0.03880233375869278	0.9183464805972139	0.3607887854533718	0.02916682551022686	0.8967883038215977	0.4782313592971289	0.002302874814485187	0.5060036540451159	0.49927863374059345	-0.011915929484168945	0.10208204219489506	0.5169704298524769	0.21017363313862147	0.03926969903052303	0.5664287441995872	0.1536114677705587	0.029022312745862953	0.6152025156660533	-0.05610741678254854	0.031002781480479982	0.5045368520512219	0.028633241697195815	0.8953822555801364	0.2485608815478676	0.012952619926148618	0.5090908406940953	0.22444166157157475	0.0018263334025007411	0.12084303606981088	0.21280902209889874	0.21642634496600446	0.04379518025614011	0.1776940735233835	0.1674451594533869	0.04302273963869228	0.12630154961351042	-0.029374039556500354	0.03599361123350355	0.21877341276890194	0.07732589576870744	1.5698445335143125	0.35367503507337833	0.33772093917229024	1.7594410214735186	0.2621727911195495	0.32736276961597854	1.6097462663999953	0.352752875990355	0.03571179552962782	1.492710825539633	0.5430070171804192	0.07468782323068071	1.2286707311909593	0.724003300056183	0.1248755722449216	1.046426352125158	0.8978590889444437	0.019851846933717297	1.4763485746944225	0.15053521101047723	0.011198525402126605	1.2252687786359089	0.00656862800820729	0.0604086194478737	1.0105340612463354	-0.14464910796579383
12	0.4	0.03751818579820769	0.9187650195023884	0.36036805569320196	0.02734882145526744	0.8980676101676666	0.4773990309284256	0.0012337051927804785	0.5073945508694193	0.5006045048579646	-0.010470438048444953	0.10045297309748899	0.5171323257966116	0.2072183601386459	0.04084892902314901	0.5669787755000643	0.1521422074954563	0.029052273981103542	0.6137226645680467	-0.0428638559497136	0.03277463474075368	0.49717941183704506	0.029064650209088744	0.8967980888294601	0.248974540430948	0.029736961777654093	0.5089232890910391	0.22051954536181603	0.00024172747389337033	0.1209489318497218	0.2127285441260076	0.21515461597359165	0.04347601092857047	0.17702575976543194	0.16588457356343442	0.040706605273277234	0.12501886481604155	-0.033248982264709716	0.034287519257891065	0.21985343596907486	0.08546435483733189	1.5780824726487832	0.34034201591243685	0.3392026799221896	1.7595799384846709	0.2619344804711778	0.3278069798638176	1.6116035611306436	0.35299842937348563	0.03259961103868881	1.4927084809433528	0.54205932421766	0.07372231111405943	1.229771452259227	0.7253255808999558	0.12302639074814183	1.0476292973043928	0.8965811055111143	0.021762685911741173	1.4750995693749593	0.15251354651957194	0.012227926286570765	1.2243727571598728	0.005385539046222894	0.06273615432934446	1.0090578106109855	-0.14412562240075258
13	0.43333333333333335	0.03681743077580918	0.9208704948045756	0.3606832809844828	0.028428873840708815	0.894186021428877	0.4752444496679542	0.0011847154248786906	0.5074315116074991	0.5019339437139543	-0.01052458699736456	0.1014535977467497	0.5186990598734029	0.20454829504530703	0.039965669213615496	0.5654651809814113	0.1527385735452841	0.03056397028993383	0.6142774198127464	-0.055656306407054226	0.031148865730260024	0.5052126184454819	0.0319405218872666	0.8922108911356643	0.24785403716923576	0.012116361204698972	0.5079211461404227	0.2226160742967693	0.005747511221224894	0.10738205023804509	0.20871580679712112	0.2142692096088387	0.04239006523948994	0.18153077914463275	0.16450071581730075	0.039224183031313156	0.12735479842877187	-0.03138930382054065	0.03604452107573901	0.22093170817413735	0.06763770682990518	1.561991457069601	0.3547684513560201	0.2557402025051794	1.7656250321617666	0.32180188893049094	0.33283637361705876	1.6082127792068097	0.3495759541850623	0.03331212717060616	1.4908666837356108	0.5446035356518871	0.07876635246111865	1.2439191947589903	0.72214641797768	0.12368813621583885	1.0479985852485583	0.894968244242307	0.02179042646240401	1.474142809571667	0.14835653872156446	0.01680994347093958	1.226365098278417	0.006484204431938354	0.06842082635856796	1.012500317350792	-0.14183195975081642
14	0.4666666666666667	0.035311357382701775	0.919710710120903	0.3599466090223716	0.028936230780621852	0.8912540018533316	0.4734765782169961	-0.0006790488252176625	0.5061115712318937	0.5020339227190069	-0.013404961773898619	0.10920974565191353	0.5137504850930296	0.2043644251240813	0.039676187185757494	0.5651385811904889	0.152030154837634	0.031916099933154266	0.6133821981696164	-0.056796767968215534	0.032097363475236236	0.5059078692940729	0.0317200313218887	0.8893910692864307	0.2465192989616781	0.016773033836433155	0.49126122677154205	0.21788439078019875	-0.0011465120807667253	0.1190951109311184	0.21361767448004715	0.21451449548924362	0.03791474732335248	0.18254889353087198	0.16316857223258746	0.03788225639648573	0.12717409541366043	-0.031938090624458536	0.0366288761350683	0.2203547311091453	0.06592046807810212	1.5645954438729948	0.3543877660472593	0.2532785559151112	1.7641596220088036	0.3223718859360994	0.33325009162972963	1.6089757262735207	0.3478346911416781	0.032399772894323345	1.492076580395197	0.5449297493705058	0.08033793356222	1.2408060829187921	0.7211684415983756	0.12176936732802182	1.046884926045198	0.8932190525510665	0.021317414425354148	1.473687525272391	0.14702485873768872	0.017653883057849956	1.2262989934449855	0.004246348180410363	0.06522037296076137	1.0067262056111612	-0.1403718419258707
15	0.5	0.034532339872490166	0.9200970113861576	0.3591598672959394	0.02982752517228268	0.8911038328972353	0.4724641396887522	-0.0008526636637489436	0.5066689455440265	0.5029327578571354	-0.013963526082132364	0.10942049740695603	0.5131746305409745	0.2045780395287881	0.03745733781119168	0.5645655620134898	0.15188501418284966	0.030280700232906535	0.6138260436107026	-0.05819350938887115	0.02864878417244311	0.5064316443392062	0.03031876495435502	0.8892087769934199	0.24642649725775953	0.017643929844904534	0.48993254804040637	0.21867866117275153	0.0040369858294805015	0.10829546822190333	0.2099493505370107	0.2154310901922367	0.039096913811414266	0.18201002712814598	0.16341578853829045	0.0365993536539605	0.12842900281097716	-0.03375166782346401	0.03825487816284385	0.224642471880456	0.06678267658755638	1.5659193311628448	0.3538636874456138	0.3322693171872216	1.7558117379541995	0.26391068987630584	0.33377707429245806	1.608472308121894	0.3471682944750889	0.03329623557647216	1.49092598547864	0.5440127551924063	0.08068792312283694	1.241715249177137	0.7209604394514567	0.11982783503888277	1.0470100646750742	0.8919457720089294	0.021389850747133846	1.473015810067403	0.14499959981147587	0.016266042205815047	1.2239973669029682	0.005083572782441173	0.07240184078604564	1.0142114707925542	-0.13896413987342807
16	0.5333333333333333	0.037492131752958416	0.9185357291878089	0.35946698960772505	0.030750925476761382	0.8910393782671953	0.4727570480178782	0.0006094076364117003	0.505408834122954	0.5017691068864025	-0.012230684363537072	0.10927039669017502	0.5128491956308151	0.20628246032284822	0.039489661280364484	0.5649541209489803	0.15321643780294267	0.03057413727206016	0.6116394667017059	-0.058022379116769794	0.03128410071798679	0.5033396289838739	0.032410799823780076	0.8904657768323733	0.24648370409943743	0.018977808873528814	0.4890729691954307	0.21821483211379303	0.006504480817307531	0.10860292710220179	0.21043374100035625	0.2146861851925809	0.03797180610038733	0.18549794058572933	0.1650971456351969	0.039969930799079664	0.13001820705149345	-0.03133892627236396	0.038227194043403225	0.22230807585093737	0.0647856766002392	1.5644345306990575	0.35472415644974875	0.3282073928479155	1.7566956693650837	0.2634754855405606	0.3353778571682614	1.6110175884863827	0.3426393360665227	0.030903506620445328	1.4929760660337137	0.5433768375200525	0.07825193314763586	1.2417902823407028	0.7206845299496605	0.11917904842630167	1.0448146872407493	0.8915320308055426	0.0201496511733797	1.4730917041335867	0.14634904310701177	0.018850211003844618	1.2230560989453696	0.004550873807802177	0.07504420816111086	1.0144925986812448	-0.13931508429843453
17	0.5666666666666667	0.03868283470931869	0.9200687309735994	0.3596941685485759	0.030863223682875314	0.893168584598821	0.47524124153739605	0.0013960130011322679	0.5043961863803559	0.5028095757549786	-0.009834424901430362	0.1115342039281034	0.5133625000425518	0.20782127776322942	0.04059530282046554	0.5655836820192078	0.15261516630849933	0.031328508561437846	0.6107721019314525	-0.057984436256698864	0.031448985441839265	0.5014596308058453	0.032073099984062416	0.8919941161322115	0.2467038026440116	0.011492840590499905	0.5063233811462283	0.2243005245100882	0.005009178188614766	0.10649102637315598	0.20805243450072503	0.2098802485559063	0.03755198660727342	0.18528632550607335	0.16106348849023028	0.037343094336666015	0.1291189167695586	-0.033642784309671644	0.0367160926911088	0.22235383831107436	0.06587132074441615	1.563725996066041	0.3536967570740859	0.24978423321904145	1.7681188304740039	0.31953419341557965	0.33215224218126266	1.6107805184969657	0.3433702002562053	0.030841326896843345	1.4924408247036156	0.542253105130316	0.07556212537764304	1.2430181054402212	0.7191041074716549	0.11938940118021843	1.0443038266723337	0.8925494394312854	0.021055590302930003	1.4741969050836727	0.1458158490534844	0.022437542176503202	1.2250739343595327	0.0064892041002765615	0.07782260929408288	1.0145636060684344	-0.14098354684134753
18	0.6	0.03755497362980042	0.9206991592384697	0.35742001859286265	0.03251248499387143	0.8916075089837877	0.471567445516403	0.0027148224272233344	0.5046093710212889	0.5017766737311388	-0.011898635075911873	0.11004445805589452	0.5126406799561403	0.2076165633222199	0.0389933144266503	0.5620978014429001	0.15111963287629393	0.03101074265906607	0.6150743334132024	-0.05662788943909999	0.031463555102533465	0.5073043563781484	0.032029721128058776	0.8920954979819345	0.24465900395643395	0.018691580924262863	0.4917160663913637	0.21691481333161763	0.007140028031450284	0.10918630766661475	0.20710636534686666	0.21384014931814896	0.03933681205338138	0.18527801661143495	0.16362057578861797	0.03963450425510012	0.13085894981277088	-0.030830708403477337	0.03913552257078236	0.2217099751127693	0.06434563146114575	1.5635640914319855	0.35206611363787765	0.3215046000739112	1.7583249863076884	0.2659513499281876	0.3309691596672051	1.6125347701727002	0.34319740248752684	0.028415181567236606	1.4920850809970057	0.5422654287674473	0.07821376123710491	1.2415273968529854	0.718005841341729	0.12026527797852625	1.046053698860102	0.8922434989422018	0.019484555726529178	1.472591185863202	0.14362289215725815	0.021358531471405665	1.2262027914009686	0.004624269144854068	0.08001929311726591	1.015492925924152	-0.1389277486141101
